<svg xmlns="http://www.w3.org/2000/svg" viewBox="0 0 512 512">
  <path d="M0,0H512V512H0Z" fill="#3e9af5"/>
  <path d="M41.47,302.41,10.24,256,25.3,232.71l41.32-2.52Z" fill="#fff" stroke="#3e9af5" stroke-width="5"/>
  <path d="M32.13,325,84.95,379.3l178.57,85.87L38.09,456.4Z" fill="#fff" stroke="#3e9af5" stroke-width="5"/>
  <path d="M31.44,322.2,67.37,230l198.87,236L85.67,378.58Z" fill="#fff" stroke="#3e9af5" stroke-width="5"/>
  <path d="M71.68,225.28,243.76,383.61,219,407.33,68.45,229.59Z" fill="#fff" stroke="#3e9af5" stroke-width="5"/>
  <path d="M235.52,373.76l8.48,8.57,56.17,72.07,63.35,14.76L246,231Z" fill="#fff" stroke="#3e9af5" stroke-width="5"/>
  <path d="M71.68,225.28l43.81-22.39L266.24,215l-20.48,20.48-11.7,137.67Z" fill="#fff" stroke="#3e9af5" stroke-width="5"/>
  <path d="M291.84,235.52l-12.87-84L310.59,42.64l58.05,116.08,16,57.82-23,58.93,11.14,22.28,4.68,21.44-8.78-1.74Z" fill="#fff" stroke="#3e9af5" stroke-width="5"/>
  <path d="M219.68,102.28l117.85,89.82,31.11-33.39L297,97.28,215,41Z" fill="#fff" stroke="#3e9af5" stroke-width="5"/>
  <path d="M368.64,153.6,378.85,140,486.4,199.68l8.51,39.14-16.53,9.34-76.17,1.08-9.37-9.6s25.09-2.61,27.26-13.77S416,209.17,406,208.47,385,218,385,218Z" fill="#fff" stroke="#3e9af5" stroke-width="5"/>
  <path d="M382.09,224.56l21.31,25.6,72.4-.72,19-10.79,6.82,24.62-46,49.85-77.89,6.93L373,298,363,275.46Z" fill="#fff" stroke="#3e9af5" stroke-width="5"/>
  <path d="M246.24,235.28l20-20.24L283.82,182l8,53.54,76.8,81.92,12.2,2.49,26.34-2.39-74.39,87.76Z" fill="#fff" stroke="#3e9af5" stroke-width="5"/>
</svg>
